<svg width="492" height="384" viewBox="0 0 492 384" fill="none" xmlns="http://www.w3.org/2000/svg">
<path d="M290.7 112.1C290.7 112.1 286.48 116.32 294.32 148.32C302.16 180.32 319.98 204.76 319.98 204.76C326.963 198.138 332.107 189.818 334.912 180.612C337.716 171.406 338.084 161.631 335.98 152.24C329.3 119 290.7 112.1 290.7 112.1Z" fill="#22272E"/>
<path d="M295.19 206.27C295.19 206.27 289.19 208.08 274.97 222.87C260.75 237.66 239.97 245.2 215.21 256.37C190.45 267.54 178.38 215.62 184.72 189.37C190.72 163.11 217.92 145 217.92 145L270.7 152.24C270.7 152.24 288.21 131.41 295.15 144.99C301.83 158.58 301.23 189.06 295.19 206.27Z" fill="#F4C2C9"/>
<path d="M249.92 302.55L70.03 343.9C68.1644 344.338 66.2309 344.402 64.3402 344.091C62.4495 343.779 60.6389 343.098 59.0122 342.085C57.3855 341.073 55.9746 339.749 54.8605 338.19C53.7465 336.631 52.9511 334.867 52.52 333L1.52001 112.1C1.0807 110.237 1.01327 108.306 1.32158 106.417C1.62988 104.528 2.30787 102.718 3.31669 101.092C4.32552 99.4652 5.64536 98.0536 7.2006 96.938C8.75584 95.8223 10.5159 95.0245 12.38 94.5902L192.27 53.2402C194.133 52.8025 196.064 52.7366 197.952 53.0462C199.841 53.3559 201.649 54.035 203.275 55.0447C204.901 56.0544 206.311 57.3749 207.426 58.9305C208.54 60.4861 209.337 62.2462 209.77 64.1102L260.48 285C260.985 286.847 261.11 288.777 260.847 290.673C260.585 292.57 259.941 294.393 258.954 296.034C257.967 297.674 256.657 299.098 255.105 300.218C253.552 301.338 251.788 302.131 249.92 302.55Z" fill="#22272E"/>
<path d="M174.16 116.62L57.05 143.49C56.1371 143.702 55.1909 143.729 54.2674 143.569C53.3439 143.409 52.462 143.065 51.6739 142.558C50.8858 142.05 50.2077 141.39 49.6796 140.616C49.1516 139.841 48.7845 138.969 48.6 138.05C48.3874 137.138 48.3601 136.192 48.5195 135.269C48.679 134.346 49.022 133.465 49.5284 132.677C50.0347 131.889 50.694 131.21 51.4673 130.682C52.2405 130.153 53.112 129.785 54.03 129.6L171.14 102.74C172.052 102.527 172.998 102.5 173.921 102.659C174.844 102.819 175.725 103.162 176.513 103.668C177.301 104.175 177.979 104.834 178.508 105.607C179.036 106.38 179.404 107.252 179.59 108.17C179.861 109.997 179.46 111.86 178.462 113.414C177.463 114.968 175.935 116.107 174.16 116.62Z" fill="#94E797"/>
<path d="M56.75 174.57L187.74 144.39" stroke="#63737A" stroke-width="5.43" stroke-linecap="round" stroke-linejoin="round"/>
<path d="M61.88 196.61L192.87 166.42" stroke="#63737A" stroke-width="5.43" stroke-linecap="round" stroke-linejoin="round"/>
<path d="M140.05 283.53L91.76 294.7C90.8478 294.913 89.9023 294.94 88.9793 294.781C88.0564 294.621 87.1749 294.278 86.3869 293.772C85.599 293.266 84.9206 292.606 84.3921 291.833C83.8636 291.06 83.4956 290.188 83.31 289.27L72.14 241C71.9275 240.087 71.9005 239.141 72.0606 238.218C72.2207 237.294 72.5646 236.412 73.072 235.624C73.5793 234.836 74.2398 234.158 75.0142 233.63C75.7885 233.102 76.6611 232.735 77.58 232.55L125.87 221.39C126.782 221.178 127.728 221.15 128.651 221.31C129.574 221.469 130.455 221.812 131.243 222.319C132.031 222.825 132.709 223.484 133.238 224.257C133.766 225.031 134.134 225.902 134.32 226.82L145.49 275.11C145.748 276.933 145.341 278.789 144.341 280.335C143.342 281.882 141.818 283.016 140.05 283.53Z" fill="#94E797"/>
<path d="M152.13 215.02L201.32 203.55" stroke="#63737A" stroke-width="5.43" stroke-linecap="round" stroke-linejoin="round"/>
<path d="M157.56 238.86L207.06 227.69" stroke="#63737A" stroke-width="5.43" stroke-linecap="round" stroke-linejoin="round"/>
<path d="M162.99 263.01L192.87 256.07" stroke="#63737A" stroke-width="5.43" stroke-linecap="round" stroke-linejoin="round"/>
<path d="M136.13 73.1602L72.14 88.0002C71.0985 88.2179 70.0191 88.1717 69.0001 87.8658C67.981 87.5599 67.0546 87.004 66.3053 86.2486C65.5559 85.4933 65.0073 84.5625 64.7095 83.5411C64.4117 82.5196 64.374 81.4399 64.6 80.4002L65.2 77.4002C65.4807 76.2277 66.0806 75.1558 66.9331 74.3033C67.7856 73.4508 68.8575 72.8509 70.03 72.5702L131.3 58.3702C132.448 58.0884 133.653 58.1369 134.774 58.5103C135.896 58.8836 136.89 59.5665 137.64 60.4802L139.45 62.9002C142.47 66.8202 140.7 72.2602 136.13 73.1602Z" fill="#476882"/>
<path d="M274.97 133.83C274.97 133.83 267.42 137.75 252.97 133.83C238.52 129.91 236.07 126.28 220.97 122.36C205.87 118.44 185.05 122.66 181.43 129C177.81 135.34 187.43 139.26 200.43 140.77C213.43 142.28 219.43 167.03 240.27 176.38C274.97 191.78 305.75 144.69 274.97 133.83Z" fill="#F4C2C9"/>
<path d="M181.4 129C177.78 135.34 187.4 139.26 200.4 140.77C213.4 142.28 219.4 167.03 240.24 176.38C246.647 179.354 253.837 180.201 260.76 178.8" stroke="#E26E85" stroke-width="5.43" stroke-linecap="round" stroke-linejoin="round"/>
<path d="M297.91 119.94C297.91 119.94 281.91 130.21 274.97 133.83C274.97 133.83 288.55 147.11 293.97 170.95C299.39 194.79 295.18 206.27 295.18 206.27C295.18 206.27 312.99 204.45 321.74 198.12C321.74 198.12 330.19 184.23 323.25 157.07C316.31 129.91 297.91 119.94 297.91 119.94Z" fill="white"/>
<path d="M487.45 83.12C484.686 73.8852 479.766 65.4397 473.097 58.4801C466.427 51.5206 458.198 46.2464 449.089 43.0925C439.98 39.9386 430.252 38.9954 420.706 40.3407C411.161 41.6861 402.072 45.2813 394.19 50.83C374.27 64.71 353.44 78.29 336.84 87.35L290.7 112.4C290.7 112.4 316.96 138.35 320.89 167.03C324.82 195.71 319.98 205.03 319.98 205.03C319.98 205.03 392.12 187.22 455.8 156.13C482.66 142.55 496.24 111.76 487.49 83.13L487.45 83.12Z" fill="#476882"/>
<path d="M313.9 183C313.898 182.285 313.684 181.586 313.285 180.992C312.886 180.398 312.32 179.935 311.658 179.663C310.997 179.39 310.269 179.32 309.568 179.461C308.866 179.602 308.222 179.947 307.717 180.454C307.211 180.961 306.868 181.606 306.729 182.308C306.59 183.01 306.662 183.737 306.936 184.398C307.211 185.059 307.675 185.623 308.27 186.021C308.865 186.418 309.564 186.63 310.28 186.63C310.761 186.648 311.241 186.567 311.689 186.391C312.137 186.215 312.544 185.948 312.884 185.607C313.224 185.266 313.49 184.858 313.665 184.41C313.84 183.961 313.92 183.481 313.9 183Z" fill="#22272E"/>
</svg>
