<svg width="632" height="474" viewBox="0 0 632 474" fill="none" xmlns="http://www.w3.org/2000/svg">
<path d="M472.951 348.896L152.013 339.7C144.797 339.5 137.902 336.675 132.619 331.756C127.336 326.836 124.028 320.159 123.314 312.976L107.823 159.913C107.41 155.816 107.853 151.678 109.124 147.761C110.394 143.844 112.464 140.234 115.203 137.159C117.941 134.084 121.289 131.611 125.033 129.897C128.777 128.183 132.837 127.265 136.954 127.202L494.182 122.265C498.43 122.207 502.641 123.06 506.532 124.766C510.423 126.472 513.903 128.992 516.739 132.155C519.575 135.318 521.701 139.052 522.973 143.106C524.246 147.159 524.635 151.438 524.116 155.655L503.316 322.851C502.412 330.196 498.797 336.938 493.18 341.757C487.562 346.575 480.348 349.121 472.951 348.896Z" fill="#F5F8FA"/>
<mask id="mask0_26_2440" style="mask-type:luminance" maskUnits="userSpaceOnUse" x="107" y="122" width="418" height="227">
<path d="M472.951 348.896L152.013 339.7C144.797 339.5 137.902 336.675 132.619 331.756C127.336 326.836 124.028 320.159 123.314 312.976L107.823 159.913C107.41 155.816 107.853 151.678 109.124 147.761C110.394 143.844 112.464 140.234 115.203 137.159C117.941 134.084 121.289 131.611 125.033 129.897C128.777 128.183 132.837 127.265 136.954 127.202L494.182 122.265C498.43 122.207 502.641 123.06 506.532 124.766C510.423 126.472 513.903 128.992 516.739 132.155C519.575 135.318 521.701 139.052 522.973 143.106C524.246 147.159 524.635 151.438 524.116 155.655L503.316 322.851C502.412 330.196 498.797 336.938 493.18 341.757C487.562 346.575 480.348 349.121 472.951 348.896Z" fill="white"/>
</mask>
<g mask="url(#mask0_26_2440)">
<path d="M426.723 390.433H683.165C685.62 390.433 687.975 389.457 689.711 387.721C691.447 385.985 692.423 383.63 692.423 381.175V235.766C692.423 233.31 691.447 230.956 689.711 229.219C687.975 227.483 685.62 226.508 683.165 226.508H426.723C424.268 226.508 421.913 227.483 420.177 229.219C418.441 230.956 417.466 233.31 417.466 235.766V381.175C417.466 383.63 418.441 385.985 420.177 387.721C421.913 389.457 424.268 390.433 426.723 390.433Z" stroke="#A9BFD0" stroke-width="1.11094" stroke-linecap="round" stroke-linejoin="round"/>
<path d="M87.8258 380.681H346.489C348.944 380.681 351.299 379.706 353.035 377.97C354.771 376.234 355.747 373.879 355.747 371.423V158.926C355.747 156.47 354.771 154.116 353.035 152.38C351.299 150.643 348.944 149.668 346.489 149.668H87.8258C85.3704 149.668 83.0157 150.643 81.2795 152.38C79.5433 154.116 78.5679 156.47 78.5679 158.926V371.423C78.5679 373.879 79.5433 376.234 81.2795 377.97C83.0157 379.706 85.3704 380.681 87.8258 380.681Z" stroke="#A9BFD0" stroke-width="1.11094" stroke-linecap="round" stroke-linejoin="round"/>
<path d="M440.672 226.446H453.201C453.853 226.448 454.484 226.21 454.973 225.778C455.463 225.346 455.776 224.749 455.855 224.101L456.842 215.213C456.883 214.841 456.845 214.463 456.73 214.106C456.615 213.749 456.426 213.42 456.176 213.14C455.926 212.861 455.619 212.637 455.277 212.484C454.934 212.331 454.563 212.251 454.188 212.251H439.684C439.309 212.252 438.939 212.332 438.597 212.486C438.255 212.639 437.949 212.863 437.699 213.142C437.449 213.422 437.26 213.75 437.145 214.107C437.03 214.464 436.991 214.841 437.03 215.213L438.018 224.101C438.097 224.749 438.41 225.346 438.899 225.778C439.388 226.21 440.019 226.448 440.672 226.446Z" stroke="#A9BFD0" stroke-width="1.11094" stroke-linecap="round" stroke-linejoin="round"/>
<path d="M448.387 212.312C448.387 212.312 453.324 211.819 454.312 205.153C454.312 205.153 449.868 206.449 448.448 209.597C448.448 209.597 447.831 202.561 444.498 201.882C444.498 201.882 443.017 207.128 445.362 209.72C445.362 209.72 443.573 206.758 439.005 206.819C439.437 208.119 440.18 209.294 441.17 210.24C442.159 211.187 443.366 211.877 444.684 212.251" fill="#A9BFD0"/>
<path d="M140.904 214.288H153.433C154.086 214.289 154.716 214.052 155.205 213.619C155.695 213.187 156.008 212.59 156.087 211.942L157.074 203.055C157.115 202.682 157.077 202.304 156.962 201.947C156.847 201.59 156.658 201.261 156.408 200.982C156.158 200.702 155.851 200.478 155.509 200.325C155.166 200.172 154.795 200.093 154.42 200.092H139.916C139.541 200.094 139.171 200.174 138.829 200.327C138.487 200.481 138.181 200.704 137.931 200.984C137.681 201.263 137.492 201.591 137.377 201.948C137.262 202.305 137.223 202.682 137.262 203.055L138.25 211.942C138.33 212.59 138.644 213.186 139.133 213.618C139.622 214.05 140.251 214.288 140.904 214.288Z" stroke="#A9BFD0" stroke-width="1.11094" stroke-linecap="round" stroke-linejoin="round"/>
<path d="M148.619 200.092C148.619 200.092 153.556 199.598 154.544 192.933C154.544 192.933 150.1 194.229 148.68 197.376C148.68 197.376 148.063 190.341 144.73 189.662C144.73 189.662 143.249 194.908 145.594 197.5C145.594 197.5 143.805 194.537 139.237 194.599C139.669 195.899 140.412 197.073 141.402 198.02C142.391 198.967 143.598 199.657 144.916 200.03" fill="#A9BFD0"/>
<path d="M428.698 257.182H484.369C485.055 257.177 485.711 256.902 486.196 256.417C486.681 255.932 486.956 255.276 486.961 254.59V237.617C486.956 236.931 486.681 236.275 486.196 235.789C485.711 235.304 485.055 235.03 484.369 235.025H428.698C428.012 235.03 427.356 235.304 426.871 235.789C426.386 236.275 426.111 236.931 426.106 237.617V254.528C426.102 254.873 426.166 255.214 426.294 255.534C426.422 255.854 426.612 256.145 426.853 256.392C427.093 256.638 427.38 256.835 427.697 256.971C428.014 257.106 428.354 257.178 428.698 257.182Z" stroke="#A9BFD0" stroke-width="1.11094" stroke-linecap="round" stroke-linejoin="round"/>
<path d="M450.115 241.073H462.952C463.196 241.067 463.428 240.967 463.6 240.795C463.772 240.623 463.872 240.391 463.878 240.147C463.872 239.904 463.772 239.672 463.6 239.5C463.428 239.327 463.196 239.228 462.952 239.222H450.115C449.871 239.228 449.639 239.327 449.467 239.5C449.295 239.672 449.195 239.904 449.189 240.147C449.195 240.391 449.295 240.623 449.467 240.795C449.639 240.967 449.871 241.067 450.115 241.073Z" fill="#A9BFD0"/>
<path d="M428.698 285.449H484.369C485.055 285.444 485.711 285.17 486.196 284.685C486.681 284.2 486.956 283.543 486.961 282.857V265.946C486.956 265.26 486.681 264.604 486.196 264.119C485.711 263.634 485.055 263.359 484.369 263.354H428.698C428.012 263.359 427.356 263.634 426.871 264.119C426.386 264.604 426.111 265.26 426.106 265.946V282.857C426.111 283.543 426.386 284.2 426.871 284.685C427.356 285.17 428.012 285.444 428.698 285.449Z" stroke="#A9BFD0" stroke-width="1.11094" stroke-linecap="round" stroke-linejoin="round"/>
<path d="M450.115 269.341H462.952C463.196 269.335 463.428 269.235 463.6 269.063C463.772 268.89 463.872 268.659 463.878 268.415C463.872 268.171 463.772 267.94 463.6 267.767C463.428 267.595 463.196 267.496 462.952 267.489H450.115C449.871 267.496 449.639 267.595 449.467 267.767C449.295 267.94 449.195 268.171 449.189 268.415C449.195 268.659 449.295 268.89 449.467 269.063C449.639 269.235 449.871 269.335 450.115 269.341Z" fill="#A9BFD0"/>
<path d="M142.817 305.446H198.487C199.173 305.441 199.83 305.166 200.315 304.681C200.8 304.196 201.075 303.54 201.08 302.854V285.943C201.075 285.257 200.8 284.6 200.315 284.115C199.83 283.63 199.173 283.355 198.487 283.351H142.817C142.131 283.355 141.475 283.63 140.99 284.115C140.504 284.6 140.23 285.257 140.225 285.943V302.854C140.23 303.54 140.504 304.196 140.99 304.681C141.475 305.166 142.131 305.441 142.817 305.446Z" stroke="#A9BFD0" stroke-width="1.11094" stroke-linecap="round" stroke-linejoin="round"/>
<path d="M164.295 289.276H177.133C177.376 289.27 177.608 289.17 177.78 288.998C177.953 288.826 178.052 288.594 178.059 288.35C178.052 288.107 177.953 287.875 177.78 287.702C177.608 287.53 177.376 287.431 177.133 287.424H164.295C164.052 287.431 163.82 287.53 163.648 287.702C163.475 287.875 163.376 288.107 163.37 288.35C163.362 288.474 163.381 288.597 163.425 288.713C163.469 288.828 163.537 288.933 163.625 289.021C163.712 289.108 163.817 289.176 163.933 289.22C164.048 289.264 164.172 289.283 164.295 289.276Z" fill="#A9BFD0"/>
<path d="M214.287 305.446H269.958C270.644 305.441 271.3 305.166 271.785 304.681C272.27 304.196 272.545 303.54 272.55 302.854V285.943C272.545 285.257 272.27 284.6 271.785 284.115C271.3 283.63 270.644 283.355 269.958 283.351H214.287C213.601 283.355 212.945 283.63 212.46 284.115C211.975 284.6 211.7 285.257 211.695 285.943V302.854C211.7 303.54 211.975 304.196 212.46 304.681C212.945 305.166 213.601 305.441 214.287 305.446Z" stroke="#A9BFD0" stroke-width="1.11094" stroke-linecap="round" stroke-linejoin="round"/>
<path d="M235.766 289.276H248.603C248.847 289.27 249.079 289.17 249.251 288.998C249.423 288.826 249.523 288.594 249.529 288.35C249.523 288.107 249.423 287.875 249.251 287.702C249.079 287.53 248.847 287.431 248.603 287.424H235.766C235.522 287.431 235.29 287.53 235.118 287.702C234.946 287.875 234.846 288.107 234.84 288.35C234.833 288.474 234.852 288.597 234.896 288.713C234.94 288.828 235.008 288.933 235.095 289.021C235.182 289.108 235.287 289.176 235.403 289.22C235.519 289.264 235.642 289.283 235.766 289.276Z" fill="#A9BFD0"/>
<path d="M499.675 257.182H555.345C556.031 257.177 556.688 256.902 557.173 256.417C557.658 255.932 557.933 255.276 557.937 254.59V237.617C557.933 236.931 557.658 236.275 557.173 235.789C556.688 235.304 556.031 235.03 555.345 235.025H499.675C498.989 235.03 498.332 235.304 497.847 235.789C497.362 236.275 497.088 236.931 497.083 237.617V254.528C497.079 254.873 497.143 255.214 497.271 255.534C497.399 255.854 497.589 256.145 497.829 256.392C498.07 256.638 498.357 256.835 498.674 256.971C498.99 257.106 499.331 257.178 499.675 257.182Z" stroke="#A9BFD0" stroke-width="1.11094" stroke-linecap="round" stroke-linejoin="round"/>
<path d="M521.091 241.073H533.929C534.172 241.067 534.404 240.967 534.577 240.795C534.749 240.623 534.848 240.391 534.855 240.147C534.848 239.904 534.749 239.672 534.577 239.5C534.404 239.327 534.172 239.228 533.929 239.222H521.091C520.848 239.228 520.616 239.327 520.444 239.5C520.271 239.672 520.172 239.904 520.166 240.147C520.172 240.391 520.271 240.623 520.444 240.795C520.616 240.967 520.848 241.067 521.091 241.073Z" fill="#A9BFD0"/>
<path d="M499.675 285.449H555.345C556.031 285.444 556.688 285.17 557.173 284.685C557.658 284.2 557.933 283.543 557.938 282.857V265.946C557.933 265.26 557.658 264.604 557.173 264.119C556.688 263.634 556.031 263.359 555.345 263.354H499.675C498.989 263.359 498.333 263.634 497.847 264.119C497.362 264.604 497.088 265.26 497.083 265.946V282.857C497.088 283.543 497.362 284.2 497.847 284.685C498.333 285.17 498.989 285.444 499.675 285.449Z" stroke="#A9BFD0" stroke-width="1.11094" stroke-linecap="round" stroke-linejoin="round"/>
<path d="M521.091 269.341H533.929C534.172 269.335 534.404 269.235 534.577 269.063C534.749 268.89 534.848 268.659 534.855 268.415C534.848 268.171 534.749 267.94 534.577 267.767C534.404 267.595 534.172 267.496 533.929 267.489H521.091C520.848 267.496 520.616 267.595 520.444 267.767C520.271 267.94 520.172 268.171 520.166 268.415C520.172 268.659 520.271 268.89 520.444 269.063C520.616 269.235 520.848 269.335 521.091 269.341Z" fill="#A9BFD0"/>
<path d="M61.7804 214.349H342.601C343.351 214.341 344.069 214.04 344.599 213.509C345.13 212.978 345.432 212.261 345.44 211.51V162.321C345.432 161.57 345.13 160.853 344.599 160.322C344.069 159.791 343.351 159.489 342.601 159.481H61.7804C61.03 159.489 60.3125 159.791 59.7818 160.322C59.2511 160.853 58.9494 161.57 58.9414 162.321V211.51C58.9406 211.883 59.0134 212.253 59.1558 212.598C59.2982 212.943 59.5073 213.256 59.7711 213.52C60.0349 213.783 60.3482 213.993 60.693 214.135C61.0378 214.277 61.4074 214.35 61.7804 214.349Z" stroke="#A9BFD0" stroke-width="1.11094" stroke-linecap="round" stroke-linejoin="round"/>
<path d="M61.7804 275.451H342.601C343.351 275.443 344.069 275.141 344.599 274.611C345.13 274.08 345.432 273.362 345.44 272.612V223.422C345.432 222.672 345.13 221.954 344.599 221.423C344.069 220.893 343.351 220.591 342.601 220.583H61.7804C61.03 220.591 60.3125 220.893 59.7818 221.423C59.2511 221.954 58.9494 222.672 58.9414 223.422V272.612C58.9494 273.362 59.2511 274.08 59.7818 274.611C60.3125 275.141 61.03 275.443 61.7804 275.451Z" stroke="#A9BFD0" stroke-width="1.11094" stroke-linecap="round" stroke-linejoin="round"/>
<path d="M326.572 183.36H320.462V214.405H326.572V183.36Z" stroke="#A9BFD0" stroke-width="1.11094" stroke-linecap="round" stroke-linejoin="round"/>
<path d="M320.438 191.76H314.081V214.349H320.438V191.76Z" stroke="#A9BFD0" stroke-width="1.11094" stroke-linecap="round" stroke-linejoin="round"/>
<path d="M142.416 244.301H136.306V275.346H142.416V244.301Z" stroke="#A9BFD0" stroke-width="1.11094" stroke-linecap="round" stroke-linejoin="round"/>
<path d="M136.281 252.763H129.924V275.352H136.281V252.763Z" stroke="#A9BFD0" stroke-width="1.11094" stroke-linecap="round" stroke-linejoin="round"/>
<path d="M154.815 244.301H148.705V275.346H154.815V244.301Z" stroke="#A9BFD0" stroke-width="1.11094" stroke-linecap="round" stroke-linejoin="round"/>
<path d="M160.542 243.661L154.715 245.5L164.061 275.104L169.887 273.265L160.542 243.661Z" stroke="#A9BFD0" stroke-width="1.11094" stroke-linecap="round" stroke-linejoin="round"/>
<path d="M148.742 252.763H142.385V275.352H148.742V252.763Z" stroke="#A9BFD0" stroke-width="1.11094" stroke-linecap="round" stroke-linejoin="round"/>
<path d="M271.501 187.378L270.822 178.182C270.809 178.038 270.826 177.893 270.873 177.756C270.921 177.62 270.996 177.495 271.096 177.389C271.195 177.284 271.315 177.202 271.449 177.147C271.583 177.092 271.727 177.066 271.871 177.071H277.179C277.322 177.072 277.463 177.101 277.594 177.158C277.725 177.215 277.843 177.298 277.941 177.402C278.04 177.506 278.116 177.628 278.165 177.762C278.214 177.896 278.236 178.039 278.228 178.182L277.549 187.378C277.549 187.378 283.104 190.958 283.042 193.92C282.98 196.204 281.623 207.128 281.005 211.942C280.927 212.59 280.613 213.187 280.124 213.619C279.635 214.051 279.004 214.289 278.352 214.287H270.698C270.046 214.289 269.415 214.051 268.926 213.619C268.437 213.187 268.123 212.59 268.044 211.942C267.427 207.128 266.069 196.204 266.008 193.92C265.946 190.958 271.501 187.378 271.501 187.378Z" fill="#A9BFD0"/>
<path d="M244.221 187.378L243.542 178.182C243.529 178.038 243.546 177.893 243.594 177.756C243.641 177.62 243.717 177.495 243.816 177.389C243.915 177.284 244.036 177.202 244.169 177.147C244.303 177.092 244.447 177.066 244.591 177.071H249.899C250.042 177.072 250.183 177.101 250.314 177.158C250.445 177.215 250.564 177.298 250.662 177.402C250.76 177.506 250.836 177.628 250.885 177.762C250.934 177.896 250.956 178.039 250.948 178.182L250.269 187.378C250.269 187.378 255.824 190.958 255.762 193.92C255.701 196.204 254.343 207.128 253.726 211.942C253.647 212.59 253.334 213.187 252.844 213.619C252.355 214.051 251.725 214.289 251.072 214.287H243.419C242.766 214.289 242.135 214.051 241.646 213.619C241.157 213.187 240.843 212.59 240.765 211.942C240.148 207.128 238.79 196.204 238.728 193.92C238.666 190.958 244.221 187.378 244.221 187.378Z" fill="#A9BFD0"/>
<path d="M516.709 333.713H-59.0649" stroke="#A9BFD0" stroke-width="1.11094" stroke-linecap="round" stroke-linejoin="round"/>
</g>
<path d="M261.626 275.451H210.276C209.474 275.449 208.706 275.13 208.139 274.563C207.572 273.997 207.253 273.228 207.252 272.427V264.342C207.253 263.54 207.572 262.772 208.139 262.205C208.706 261.638 209.474 261.319 210.276 261.317H261.626C262.427 261.319 263.196 261.638 263.762 262.205C264.329 262.772 264.648 263.54 264.65 264.342V272.427C264.648 273.228 264.329 273.997 263.762 274.563C263.196 275.13 262.427 275.449 261.626 275.451Z" stroke="#A9BFD0" stroke-width="1.11094" stroke-linecap="round" stroke-linejoin="round"/>
<path d="M254.405 248.294H217.373V261.255H254.405V248.294Z" stroke="#A9BFD0" stroke-width="1.11094" stroke-linecap="round" stroke-linejoin="round"/>
<path d="M213.053 266.934C213.564 266.934 213.979 266.519 213.979 266.008C213.979 265.497 213.564 265.082 213.053 265.082C212.542 265.082 212.127 265.497 212.127 266.008C212.127 266.519 212.542 266.934 213.053 266.934Z" fill="#A9BFD0"/>
<path d="M268.045 261.564L294.09 251.874C294.576 251.686 294.995 251.355 295.292 250.926C295.589 250.497 295.751 249.989 295.756 249.467L244.036 245.764L251.998 260.083L265.452 261.873C266.329 261.988 267.22 261.882 268.045 261.564Z" fill="#63737A"/>
<path d="M202.499 252.121L197.809 215.522C197.779 215.282 197.803 215.039 197.878 214.81C197.953 214.58 198.077 214.37 198.241 214.193C198.406 214.017 198.607 213.879 198.831 213.788C199.055 213.698 199.296 213.658 199.537 213.67L262.12 218.114C262.568 218.143 262.991 218.334 263.309 218.652C263.627 218.97 263.819 219.393 263.848 219.842L267.551 260.144C267.575 260.391 267.544 260.64 267.458 260.872C267.373 261.105 267.236 261.315 267.058 261.487C266.88 261.66 266.665 261.789 266.43 261.867C266.195 261.944 265.945 261.967 265.699 261.934L204.104 253.787C203.694 253.715 203.318 253.515 203.03 253.216C202.742 252.916 202.556 252.533 202.499 252.121Z" fill="#22272E"/>
<path d="M295.756 249.529C295.76 250.053 295.601 250.565 295.303 250.995C295.005 251.426 294.581 251.754 294.09 251.936L268.045 261.626C267.398 261.883 266.701 261.988 266.008 261.934C265.355 261.406 264.81 260.756 264.403 260.021L295.756 249.529Z" fill="#22272E"/>
<path d="M232.395 239.987C234.041 238.772 234.226 236.231 232.808 234.312C231.391 232.392 228.908 231.821 227.263 233.036C225.618 234.251 225.433 236.791 226.85 238.711C228.267 240.63 230.75 241.202 232.395 239.987Z" fill="#63737A"/>
<path d="M377.287 86.4678H358.401L356.487 87.7022C356.346 87.7936 356.183 87.8447 356.015 87.8498C355.847 87.8549 355.681 87.8139 355.535 87.7312C355.388 87.6485 355.267 87.5273 355.185 87.3807C355.103 87.2341 355.062 87.0678 355.068 86.8998V73.5068C355.068 72.8521 355.328 72.2241 355.791 71.7612C356.254 71.2982 356.882 71.0381 357.537 71.0381H377.348C378.003 71.0381 378.631 71.2982 379.094 71.7612C379.557 72.2241 379.817 72.8521 379.817 73.5068V83.9373C379.805 84.6045 379.534 85.2408 379.062 85.7126C378.59 86.1845 377.954 86.4551 377.287 86.4678Z" fill="#7B9DB5"/>
<path d="M367.165 77.21H373.769" stroke="#22272E" stroke-width="1.11094" stroke-linecap="round" stroke-linejoin="round"/>
<path d="M367.165 80.6045H371.177" stroke="#22272E" stroke-width="1.11094" stroke-linecap="round" stroke-linejoin="round"/>
<path d="M363.77 77.21H360.376V80.6045H363.77V77.21Z" stroke="#22272E" stroke-width="1.11094" stroke-linecap="round" stroke-linejoin="round"/>
<path d="M264.465 186.39L160.16 202.19C159.609 202.276 159.047 202.245 158.509 202.102C157.97 201.958 157.467 201.704 157.032 201.356C156.597 201.008 156.239 200.573 155.981 200.079C155.722 199.585 155.569 199.043 155.531 198.487L149.298 104.551C149.255 103.941 149.343 103.328 149.558 102.754C149.772 102.18 150.107 101.659 150.54 101.226C150.973 100.793 151.494 100.458 152.067 100.244C152.641 100.03 153.254 99.9412 153.865 99.9842L258.355 106.65C259.313 106.71 260.218 107.11 260.908 107.777C261.598 108.444 262.027 109.336 262.12 110.291L268.106 181.823C268.173 182.9 267.837 183.964 267.164 184.807C266.491 185.651 265.53 186.215 264.465 186.39Z" fill="#63737A"/>
<path d="M267.304 186.267L162.505 202.129C161.955 202.214 161.392 202.184 160.854 202.04C160.315 201.896 159.813 201.642 159.377 201.294C158.942 200.946 158.584 200.511 158.326 200.018C158.067 199.524 157.914 198.982 157.877 198.426L151.581 104.058C151.535 103.438 151.623 102.816 151.84 102.233C152.056 101.651 152.395 101.122 152.835 100.682C153.274 100.243 153.803 99.9036 154.386 99.6872C154.968 99.4709 155.59 99.3828 156.21 99.4289L261.132 106.095C262.099 106.158 263.012 106.567 263.703 107.246C264.394 107.926 264.818 108.832 264.897 109.798L270.945 181.638C271.066 182.733 270.752 183.831 270.071 184.697C269.39 185.563 268.396 186.127 267.304 186.267Z" fill="#22272E"/>
<path d="M198.981 153.927L169.48 155.531C169.031 155.552 168.591 155.395 168.257 155.095C167.922 154.795 167.718 154.375 167.69 153.927L165.962 128.992C165.948 128.756 165.983 128.519 166.064 128.297C166.144 128.074 166.269 127.87 166.43 127.697C166.592 127.524 166.787 127.386 167.003 127.29C167.22 127.194 167.453 127.144 167.69 127.141L197.191 127.326C197.631 127.319 198.056 127.482 198.378 127.781C198.7 128.08 198.894 128.492 198.92 128.93L200.648 152.075C200.663 152.307 200.631 152.539 200.555 152.758C200.479 152.977 200.36 153.179 200.205 153.352C200.049 153.524 199.861 153.664 199.651 153.763C199.441 153.861 199.213 153.917 198.981 153.927Z" fill="#6DAFA7"/>
<path d="M230.705 144.298L206.017 145.162C205.568 145.183 205.129 145.026 204.794 144.726C204.46 144.426 204.256 144.006 204.227 143.558L203.178 129.177C203.165 128.941 203.199 128.704 203.28 128.482C203.36 128.259 203.485 128.055 203.647 127.882C203.808 127.709 204.003 127.571 204.22 127.475C204.436 127.379 204.67 127.329 204.906 127.326L229.594 127.511C230.027 127.523 230.442 127.693 230.759 127.988C231.077 128.284 231.277 128.684 231.322 129.116L232.371 142.447C232.391 142.68 232.364 142.914 232.29 143.136C232.215 143.357 232.097 143.561 231.94 143.735C231.784 143.908 231.594 144.048 231.381 144.145C231.169 144.242 230.938 144.294 230.705 144.298Z" fill="#2E3E4C"/>
<path d="M258.663 143.373L237.864 144.113C237.415 144.133 236.976 143.977 236.641 143.677C236.306 143.377 236.103 142.957 236.074 142.508L235.025 129.486C235.012 129.25 235.046 129.013 235.127 128.79C235.207 128.568 235.332 128.364 235.494 128.191C235.655 128.018 235.85 127.879 236.066 127.784C236.283 127.688 236.516 127.637 236.753 127.634L257.552 127.758C257.986 127.77 258.4 127.94 258.718 128.235C259.036 128.53 259.236 128.931 259.28 129.362L260.268 141.521C260.291 141.749 260.267 141.98 260.198 142.198C260.128 142.417 260.015 142.619 259.865 142.793C259.715 142.966 259.53 143.107 259.324 143.207C259.117 143.306 258.892 143.363 258.663 143.373Z" fill="#7B9DB5"/>
<path d="M200.833 178.12L171.331 181.33C171.099 181.358 170.863 181.338 170.639 181.272C170.414 181.205 170.206 181.093 170.026 180.942C169.847 180.792 169.701 180.606 169.596 180.397C169.491 180.187 169.431 179.959 169.418 179.725L168.307 163.616C168.284 163.161 168.439 162.713 168.738 162.368C169.037 162.023 169.457 161.807 169.912 161.765L199.475 159.79C199.702 159.773 199.93 159.801 200.146 159.873C200.362 159.945 200.562 160.058 200.734 160.207C200.906 160.356 201.047 160.538 201.149 160.742C201.251 160.946 201.311 161.167 201.327 161.395L202.438 176.269C202.442 176.72 202.281 177.157 201.985 177.498C201.69 177.839 201.28 178.06 200.833 178.12Z" stroke="#63737A" stroke-width="1.11094" stroke-linecap="round" stroke-linejoin="round"/>
<path d="M233.482 177.503L208.856 180.404C208.624 180.432 208.388 180.412 208.164 180.346C207.939 180.279 207.731 180.167 207.551 180.017C207.372 179.866 207.225 179.68 207.121 179.471C207.016 179.262 206.956 179.033 206.943 178.799L204.968 152.198C204.936 151.74 205.087 151.288 205.387 150.941C205.688 150.594 206.114 150.38 206.573 150.347L231.26 149.174C231.709 149.154 232.148 149.311 232.483 149.611C232.818 149.911 233.021 150.33 233.05 150.779L235.025 175.651C235.052 176.099 234.907 176.539 234.62 176.883C234.334 177.227 233.927 177.449 233.482 177.503Z" fill="#94E797"/>
<path d="M228.359 153.803L210.646 154.852C210.546 154.852 210.447 154.873 210.356 154.915C210.265 154.957 210.184 155.018 210.119 155.095C210.054 155.171 210.007 155.261 209.981 155.358C209.955 155.455 209.95 155.556 209.967 155.655L210.77 166.641C210.774 166.739 210.799 166.836 210.842 166.925C210.886 167.013 210.947 167.092 211.022 167.156C211.098 167.219 211.185 167.267 211.28 167.295C211.375 167.323 211.474 167.332 211.572 167.32L229.285 165.777C229.384 165.772 229.48 165.748 229.569 165.704C229.658 165.661 229.736 165.599 229.8 165.524C229.864 165.449 229.911 165.361 229.939 165.266C229.968 165.172 229.976 165.072 229.964 164.974L229.162 154.482C229.123 154.296 229.023 154.127 228.878 154.004C228.732 153.881 228.55 153.81 228.359 153.803Z" fill="#1F2933"/>
<path d="M261.132 171.393L240.333 173.676C240.1 173.705 239.865 173.685 239.64 173.618C239.416 173.552 239.207 173.44 239.028 173.289C238.849 173.139 238.702 172.953 238.597 172.744C238.493 172.534 238.432 172.305 238.42 172.072L236.753 150.655C236.721 150.197 236.872 149.745 237.173 149.398C237.473 149.051 237.9 148.837 238.358 148.804L259.157 147.816C259.606 147.796 260.045 147.953 260.38 148.253C260.715 148.553 260.918 148.972 260.947 149.421L262.613 169.541C262.639 169.76 262.621 169.982 262.56 170.194C262.499 170.406 262.397 170.604 262.259 170.776C262.122 170.949 261.951 171.092 261.758 171.198C261.564 171.303 261.351 171.37 261.132 171.393Z" fill="#2E3E4C"/>
<path d="M185.773 167.937L186.144 172.504" stroke="#63737A" stroke-width="1.11094" stroke-linecap="round" stroke-linejoin="round"/>
<path d="M183.798 170.405L188.119 170.035" stroke="#63737A" stroke-width="1.11094" stroke-linecap="round" stroke-linejoin="round"/>
<path d="M215.337 172.998C215.213 171.763 214.287 170.776 213.177 170.899C212.6 170.998 212.084 171.317 211.738 171.789C211.393 172.262 211.244 172.85 211.325 173.43C211.33 173.714 211.391 173.995 211.506 174.256C211.621 174.516 211.787 174.751 211.994 174.947C212.201 175.142 212.445 175.294 212.712 175.394C212.978 175.494 213.262 175.54 213.547 175.528C214.097 175.387 214.579 175.055 214.906 174.591C215.234 174.128 215.387 173.563 215.337 172.998Z" fill="#282828"/>
<path d="M218.916 172.627L230.458 171.455" stroke="#282828" stroke-width="1.11094" stroke-linecap="round" stroke-linejoin="round"/>
<path d="M244.591 154.606C244.582 154.089 244.381 153.595 244.028 153.218C243.674 152.842 243.193 152.61 242.678 152.569C241.691 152.631 241.012 153.618 241.073 154.791C241.135 155.963 241.999 156.889 242.987 156.827C243.974 156.766 244.715 155.778 244.591 154.606Z" fill="#6DAFA7"/>
<path d="M247.739 154.42L257.676 153.803" stroke="#282828" stroke-width="1.11094" stroke-linecap="round" stroke-linejoin="round"/>
<path d="M245.147 161.21C245.023 160.037 244.221 159.173 243.234 159.235C242.246 159.296 241.567 160.345 241.629 161.518C241.691 162.691 242.616 163.617 243.542 163.493C244.055 163.398 244.511 163.106 244.811 162.679C245.111 162.252 245.232 161.724 245.147 161.21Z" fill="#6DAFA7"/>
<path d="M248.233 160.962L258.231 160.16" stroke="#282828" stroke-width="1.11094" stroke-linecap="round" stroke-linejoin="round"/>
<path d="M245.702 167.813C245.579 166.64 244.777 165.776 243.789 165.838C242.802 165.9 242.123 166.949 242.184 168.122C242.246 169.294 243.172 170.158 244.098 170.097C244.605 169.991 245.053 169.696 245.351 169.272C245.649 168.848 245.774 168.326 245.702 167.813Z" fill="#6DAFA7"/>
<path d="M248.788 167.505L258.725 166.517" stroke="#282828" stroke-width="1.11094" stroke-linecap="round" stroke-linejoin="round"/>
<path d="M176.269 137.139L172.257 137.201C172.074 137.191 171.9 137.118 171.765 136.994C171.63 136.87 171.542 136.703 171.516 136.522L171.208 132.325C171.204 132.227 171.221 132.129 171.257 132.038C171.293 131.946 171.348 131.863 171.417 131.794C171.487 131.724 171.57 131.67 171.661 131.634C171.752 131.598 171.85 131.581 171.948 131.584H175.96C176.143 131.594 176.317 131.667 176.452 131.791C176.587 131.915 176.675 132.082 176.701 132.263L177.009 136.398C176.986 136.587 176.901 136.762 176.766 136.896C176.632 137.03 176.457 137.116 176.269 137.139Z" fill="#2E3E4C"/>
<path d="M180.589 131.584L194.476 131.522" stroke="#282828" stroke-width="1.11094" stroke-linecap="round" stroke-linejoin="round"/>
<path d="M180.836 135.164L194.723 135.041" stroke="#282828" stroke-width="1.11094" stroke-linecap="round" stroke-linejoin="round"/>
<path d="M242.863 136.151L239.716 136.213C239.616 136.199 239.522 136.156 239.446 136.091C239.369 136.025 239.313 135.939 239.284 135.843L238.975 131.831C238.973 131.774 238.983 131.717 239.004 131.664C239.026 131.611 239.057 131.562 239.098 131.522C239.138 131.481 239.187 131.45 239.24 131.429C239.293 131.407 239.35 131.397 239.407 131.399H242.555C242.654 131.413 242.748 131.456 242.825 131.521C242.901 131.587 242.957 131.673 242.987 131.769L243.295 135.719C243.288 135.832 243.24 135.937 243.161 136.017C243.081 136.096 242.975 136.144 242.863 136.151Z" fill="#282828"/>
<path d="M245.826 131.337H256.133" stroke="#282828" stroke-width="1.11094" stroke-linecap="round" stroke-linejoin="round"/>
<path d="M246.134 134.485L256.38 134.362" stroke="#282828" stroke-width="1.11094" stroke-linecap="round" stroke-linejoin="round"/>
<path d="M239.592 139.608L256.75 139.176" stroke="#282828" stroke-width="1.11094" stroke-linecap="round" stroke-linejoin="round"/>
<path d="M176.948 146.705L172.936 146.829C172.75 146.829 172.57 146.76 172.433 146.634C172.296 146.508 172.211 146.335 172.195 146.15L171.887 141.953C171.881 141.859 171.894 141.765 171.925 141.677C171.957 141.589 172.005 141.507 172.069 141.438C172.132 141.369 172.209 141.313 172.294 141.275C172.38 141.236 172.472 141.215 172.566 141.212L176.577 141.089C176.76 141.099 176.934 141.172 177.069 141.295C177.205 141.419 177.292 141.586 177.318 141.768L177.627 145.903C177.639 146.098 177.575 146.291 177.448 146.441C177.322 146.59 177.142 146.685 176.948 146.705Z" fill="#2E3E4C"/>
<path d="M181.268 141.028L195.155 140.657" stroke="#282828" stroke-width="1.11094" stroke-linecap="round" stroke-linejoin="round"/>
<path d="M181.515 144.669L195.402 144.237" stroke="#282828" stroke-width="1.11094" stroke-linecap="round" stroke-linejoin="round"/>
<path d="M187.07 116.834L166.27 116.216C165.94 116.208 165.624 116.077 165.384 115.849C165.145 115.621 164.999 115.312 164.974 114.982L164.727 111.711C164.712 111.526 164.737 111.34 164.799 111.165C164.861 110.99 164.959 110.831 165.088 110.696C165.216 110.562 165.371 110.457 165.543 110.387C165.715 110.317 165.9 110.285 166.085 110.291L186.884 111.155C187.215 111.164 187.531 111.295 187.77 111.523C188.01 111.751 188.156 112.06 188.18 112.39L188.427 115.414C188.437 115.598 188.41 115.782 188.346 115.955C188.282 116.127 188.184 116.285 188.056 116.418C187.929 116.551 187.776 116.657 187.606 116.728C187.436 116.8 187.254 116.836 187.07 116.834Z" fill="#6DAFA7"/>
<path d="M208.116 131.461L227.742 131.399" stroke="#282828" stroke-width="1.11094" stroke-linecap="round" stroke-linejoin="round"/>
<path d="M208.362 134.917L227.989 134.67" stroke="#282828" stroke-width="1.11094" stroke-linecap="round" stroke-linejoin="round"/>
<path d="M208.733 140.348L219.287 140.102" stroke="#282828" stroke-width="1.11094" stroke-linecap="round" stroke-linejoin="round"/>
<path d="M258.046 116.525C258.038 116.094 257.879 115.679 257.597 115.352C257.316 115.025 256.929 114.807 256.503 114.735C255.763 114.674 255.145 115.476 255.269 116.402C255.258 116.838 255.41 117.263 255.695 117.594C255.98 117.925 256.378 118.138 256.812 118.192C257.552 118.253 258.108 117.451 258.046 116.525Z" fill="#63737A"/>
<path d="M252.553 116.34C252.552 115.907 252.396 115.488 252.113 115.16C251.83 114.831 251.439 114.615 251.01 114.55C250.208 114.488 249.652 115.291 249.714 116.278C249.716 116.721 249.88 117.149 250.176 117.478C250.472 117.808 250.878 118.018 251.319 118.068C252.059 118.068 252.615 117.266 252.553 116.34Z" fill="#63737A"/>
<path d="M246.875 116.093C246.863 115.647 246.696 115.218 246.404 114.88C246.111 114.543 245.711 114.317 245.27 114.242C244.468 114.18 243.851 114.982 243.913 115.97C243.925 116.416 244.091 116.845 244.384 117.182C244.676 117.52 245.077 117.746 245.517 117.821C246.381 117.883 246.937 117.081 246.875 116.093Z" fill="#63737A"/>
<path d="M283.104 124.61L255.701 124.116C255.165 124.117 254.649 123.913 254.259 123.546C253.869 123.179 253.634 122.676 253.602 122.141L251.134 91.9608C251.118 91.7218 251.154 91.4822 251.238 91.258C251.323 91.0339 251.454 90.8304 251.624 90.661C251.793 90.4916 251.997 90.3603 252.221 90.2758C252.445 90.1913 252.684 90.1556 252.923 90.171L280.45 93.0718C280.952 93.1193 281.42 93.3443 281.771 93.7063C282.122 94.0684 282.332 94.5437 282.363 95.0467L284.77 122.758C284.795 122.992 284.771 123.229 284.699 123.452C284.626 123.676 284.508 123.882 284.351 124.056C284.193 124.231 284.001 124.371 283.786 124.466C283.571 124.561 283.339 124.611 283.104 124.61Z" fill="#51F7D7"/>
<path d="M284.585 124.116L257.182 123.623C256.646 123.624 256.13 123.419 255.74 123.052C255.35 122.685 255.115 122.183 255.084 121.648L252.615 91.4672C252.599 91.2281 252.635 90.9885 252.72 90.7644C252.804 90.5403 252.935 90.3367 253.105 90.1673C253.274 89.998 253.478 89.8666 253.702 89.7821C253.926 89.6976 254.166 89.6619 254.405 89.6773L281.931 92.5781C282.433 92.6256 282.901 92.8506 283.252 93.2127C283.603 93.5747 283.813 94.05 283.845 94.5531L286.252 122.265C286.271 122.497 286.243 122.731 286.168 122.953C286.094 123.174 285.975 123.377 285.819 123.551C285.663 123.724 285.473 123.864 285.26 123.961C285.048 124.058 284.818 124.111 284.585 124.116Z" fill="#2E3E4C"/>
<path d="M264.588 95.2939L279.092 96.6518" stroke="#63737A" stroke-width="1.11094" stroke-linecap="round" stroke-linejoin="round"/>
<path d="M264.835 98.2563L279.339 99.4907" stroke="#63737A" stroke-width="1.11094" stroke-linecap="round" stroke-linejoin="round"/>
<path d="M265.391 105.045L279.956 106.033" stroke="#63737A" stroke-width="1.11094" stroke-linecap="round" stroke-linejoin="round"/>
<path d="M265.638 107.946L280.141 108.81" stroke="#63737A" stroke-width="1.11094" stroke-linecap="round" stroke-linejoin="round"/>
<path d="M266.255 114.797L280.759 115.414" stroke="#63737A" stroke-width="1.11094" stroke-linecap="round" stroke-linejoin="round"/>
<path d="M266.502 117.698L281.005 118.192" stroke="#63737A" stroke-width="1.11094" stroke-linecap="round" stroke-linejoin="round"/>
<path d="M259.589 96.9601L260.33 97.8858L261.379 96.4663" stroke="#6DAFA7" stroke-width="1.11094" stroke-linecap="round" stroke-linejoin="round"/>
<path d="M260.391 106.835L261.132 107.699L262.243 106.28" stroke="#6DAFA7" stroke-width="1.11094" stroke-linecap="round" stroke-linejoin="round"/>
<path d="M261.194 116.525L261.996 117.389L263.045 115.908" stroke="#6DAFA7" stroke-width="1.11094" stroke-linecap="round" stroke-linejoin="round"/>
<path d="M296.127 167.999C296.127 167.999 292.3 175.96 291.991 181.021C291.683 186.082 297.052 206.388 305.816 221.879C305.816 221.879 314.087 219.163 314.087 216.633C314.087 214.102 309.211 184.169 309.52 183.305C309.828 182.441 313.223 176.084 313.223 173.368C313.223 170.652 297.423 165.036 296.127 167.999Z" fill="#F8D3BD"/>
<path d="M313.223 173.368C313.223 170.652 297.484 165.036 296.188 167.999C296.188 167.999 295.695 169.11 295.016 170.714C300.015 174.602 305.384 177.935 311.495 179.046C312.359 177.071 313.223 174.726 313.223 173.368Z" fill="#E26E85"/>
<path d="M312.544 134.177C312.544 134.177 306.372 136.275 301.681 146.891C296.991 157.506 291.991 166.394 291.991 166.394C291.991 166.394 299.706 174.047 309.581 177.935C319.456 181.947 319.827 135.164 312.544 134.177Z" fill="#6DAFA7"/>
<path d="M293.72 163.246C293.72 163.246 304.273 171.887 314.087 175.652" stroke="#282828" stroke-width="1.11094" stroke-linecap="round" stroke-linejoin="round"/>
<path d="M333.158 364.388C333.158 364.388 332.602 377.348 332.726 378.583C332.849 379.817 328.405 382.471 322.913 382.286C317.42 382.101 316.926 380.496 316.926 380.496C316.926 380.496 315.691 366.486 315.568 364.511C315.445 362.536 332.047 361.734 333.158 364.388Z" fill="#F8D3BD"/>
<path d="M332.849 371.855C332.973 368.152 333.158 364.388 333.158 364.388C332.047 361.734 315.445 362.536 315.568 364.511C315.63 365.437 315.938 368.893 316.185 372.349C321.061 374.756 327.48 374.139 332.849 371.855Z" fill="#22272E"/>
<path d="M332.726 378.212C332.726 378.212 333.22 381.854 333.405 385.804C333.59 389.754 334.207 396.975 333.528 398.209C332.849 399.444 329.084 400.493 320.259 401.172C311.433 401.851 303.286 401.233 301.866 400.122C300.447 399.011 300.879 397.345 302.237 396.049C303.595 394.753 308.964 389.013 311.186 386.668C314.087 383.582 316.185 380.434 316.185 380.064C316.37 378.583 316.679 378.583 316.679 378.583C316.679 378.583 317.049 379.508 317.543 379.447C318.037 379.385 318.716 376.608 321.678 377.286C324.641 377.965 325.875 380.002 326.986 380.002C328.097 380.002 331.121 379.57 332.726 378.212Z" fill="#22272E"/>
<path d="M356.302 366.98C356.302 366.98 357.969 380.311 358.277 381.113C358.586 381.916 361.672 384.137 366.486 383.891C371.3 383.644 373.152 382.224 373.337 381.916C373.522 381.607 373.213 366.362 373.09 365.375C372.966 364.387 357.413 364.634 356.302 366.98Z" fill="#F8D3BD"/>
<path d="M373.275 372.226C373.213 368.831 373.09 365.684 373.028 365.252C372.843 364.264 357.413 364.573 356.241 366.918C356.241 366.918 356.611 369.88 357.043 373.09C362.425 374.358 368.058 374.058 373.275 372.226Z" fill="#22272E"/>
<path d="M358.03 379.94C357.897 380.901 357.856 381.873 357.907 382.841C357.969 383.644 358.03 384.754 358.03 386.112C358.092 388.951 358.339 398.765 359.018 400.184C359.697 401.604 367.473 402.776 373.337 402.838C379.2 402.9 383.52 401.357 384.199 399.752C384.878 398.147 384.508 395.802 382.471 393.21C380.434 390.618 375.744 386.606 375.188 384.693C374.73 383.06 374.132 381.47 373.398 379.94C372.975 380.534 372.399 381.004 371.732 381.298C370.93 381.545 369.757 378.212 367.227 378.089C364.696 377.965 363.585 378.953 361.98 381.298C360.538 381.37 359.124 380.884 358.03 379.94Z" fill="#22272E"/>
<path d="M303.903 206.017C302.842 211.234 302.1 216.51 301.681 221.817C300.941 230.89 303.533 287.116 303.903 291.498C304.273 295.88 305.693 320.876 307.298 333.034C308.594 343.033 307.668 363.215 310.692 366.054C313.716 368.893 322.974 370.436 328.714 368.893C334.454 367.35 337.108 364.511 337.787 362.166C338.466 359.82 335.75 341.984 335.935 332.911C336.12 323.838 335.935 297.052 335.627 290.695C335.627 290.695 338.157 258.231 341.181 250.825C344.205 243.419 348.587 216.139 340.194 208.239C331.677 200.339 304.644 204.721 303.903 206.017Z" fill="#22272E"/>
<path d="M317.419 209.597C317.419 209.597 317.358 221.817 317.852 230.952C317.941 233.729 318.25 236.494 318.777 239.222C320.32 245.641 323.653 246.135 326.184 247.616C328.714 249.097 337.787 285.449 341.49 294.892C341.49 294.892 344.329 316.617 346.551 329.578C348.773 342.539 348.402 358.216 350.069 363.585C351.735 368.955 361.487 370.004 366.239 369.572C370.991 369.14 377.348 367.289 377.163 361.734C376.978 356.179 376.052 340.379 375.25 326.924C374.448 313.47 372.905 293.411 372.534 288.721C372.534 288.721 370.683 266.502 369.695 255.084C368.708 243.666 369.263 232.001 367.782 212.313C366.177 192.563 317.358 198.611 317.419 209.597Z" fill="#22272E"/>
<path d="M317.852 230.952C317.941 233.729 318.251 236.494 318.777 239.222C320.32 245.641 323.653 246.134 326.184 247.616C328.714 249.097 337.787 285.449 341.49 294.892" stroke="#63737A" stroke-width="1.11094" stroke-linecap="round" stroke-linejoin="round"/>
<path d="M326.184 247.616C326.184 247.616 318.962 243.913 315.753 245.27" stroke="#63737A" stroke-width="1.11094" stroke-linecap="round" stroke-linejoin="round"/>
<path d="M315.136 300.509C319.635 300.509 323.283 296.502 323.283 291.56C323.283 286.617 319.635 282.61 315.136 282.61C310.637 282.61 306.989 286.617 306.989 291.56C306.989 296.502 310.637 300.509 315.136 300.509Z" stroke="#63737A" stroke-width="1.11094" stroke-linecap="round" stroke-linejoin="round"/>
<path d="M357.722 299.953C362.358 299.953 366.116 295.946 366.116 291.004C366.116 286.061 362.358 282.055 357.722 282.055C353.086 282.055 349.328 286.061 349.328 291.004C349.328 295.946 353.086 299.953 357.722 299.953Z" stroke="#63737A" stroke-width="1.11094" stroke-linecap="round" stroke-linejoin="round"/>
<path d="M318.716 373.275C318.618 372.662 318.618 372.037 318.716 371.423" stroke="#63737A" stroke-width="1.11094" stroke-linecap="round" stroke-linejoin="round"/>
<path d="M323.838 374.077V371.423" stroke="#63737A" stroke-width="1.11094" stroke-linecap="round" stroke-linejoin="round"/>
<path d="M330.072 372.843C330.072 372.843 330.134 371.3 330.072 370.621" stroke="#63737A" stroke-width="1.11094" stroke-linecap="round" stroke-linejoin="round"/>
<path d="M359.697 373.646C359.697 373.646 359.388 371.979 359.388 371.485" stroke="#63737A" stroke-width="1.11094" stroke-linecap="round" stroke-linejoin="round"/>
<path d="M365.869 373.892C365.932 373.009 365.932 372.122 365.869 371.238" stroke="#63737A" stroke-width="1.11094" stroke-linecap="round" stroke-linejoin="round"/>
<path d="M371.177 372.905C371.242 372.207 371.242 371.504 371.177 370.806" stroke="#63737A" stroke-width="1.11094" stroke-linecap="round" stroke-linejoin="round"/>
<path d="M312.914 385.742C312.914 385.742 317.605 381.978 326.801 387.162" stroke="white" stroke-width="1.11094" stroke-linecap="round" stroke-linejoin="round"/>
<path d="M309.396 390.494C309.396 390.494 315.198 385.865 323.838 391.482" stroke="white" stroke-width="1.11094" stroke-linecap="round" stroke-linejoin="round"/>
<path d="M376.608 388.458C376.608 388.458 370.991 385.989 363.4 390.001" stroke="white" stroke-width="1.11094" stroke-linecap="round" stroke-linejoin="round"/>
<path d="M379.138 392.655C379.138 392.655 372.658 389.816 364.82 394.938" stroke="white" stroke-width="1.11094" stroke-linecap="round" stroke-linejoin="round"/>
<path d="M342.416 132.016C342.416 132.016 345.502 132.942 352.044 133.066C358.586 133.189 366.054 135.102 368.955 138.744C371.855 142.385 372.781 169.233 372.349 181.391C371.917 193.55 363.215 211.634 363.215 211.634C363.215 211.634 342.416 213.979 325.381 213.176C308.347 212.374 304.273 208.609 303.101 207.437C301.928 206.264 301.249 203.425 301.928 202.191C302.607 200.956 305.94 191.39 307.174 182.194C308.409 172.998 305.816 160.16 306.989 148.866C308.162 137.571 312.544 134.238 312.544 134.238C312.544 134.238 318.037 132.387 327.541 132.078C332.495 131.804 337.46 131.783 342.416 132.016Z" fill="#2E3E4C"/>
<mask id="mask1_26_2440" style="mask-type:luminance" maskUnits="userSpaceOnUse" x="301" y="131" width="72" height="83">
<path d="M342.416 132.016C342.416 132.016 345.502 132.942 352.044 133.066C358.586 133.189 366.054 135.102 368.955 138.744C371.855 142.385 372.781 169.233 372.349 181.391C371.917 193.55 363.215 211.634 363.215 211.634C363.215 211.634 342.416 213.979 325.381 213.176C308.347 212.374 304.273 208.609 303.101 207.437C301.928 206.264 301.249 203.425 301.928 202.191C302.607 200.956 305.94 191.39 307.174 182.194C308.409 172.998 305.816 160.16 306.989 148.866C308.162 137.571 312.544 134.238 312.544 134.238C312.544 134.238 318.037 132.387 327.541 132.078C332.495 131.804 337.46 131.783 342.416 132.016Z" fill="white"/>
</mask>
<g mask="url(#mask1_26_2440)">
<path d="M317.975 129.548C317.975 129.548 310.013 141.768 312.544 167.505C315.074 193.242 303.965 206.511 309.026 218.361" stroke="#51F7D7" stroke-width="1.11094" stroke-linecap="round" stroke-linejoin="round"/>
<path d="M360.993 131.832C360.993 131.832 351.303 133.436 348.896 149.792C346.489 166.147 352.846 187.996 351.673 200.278C350.501 212.56 347.23 219.781 347.23 219.781" stroke="#51F7D7" stroke-width="1.11094" stroke-linecap="round" stroke-linejoin="round"/>
<path d="M362.042 215.831C362.042 215.831 365.313 185.033 362.042 167.999C358.771 150.964 366.177 136.152 374.509 138.188" stroke="#51F7D7" stroke-width="1.11094" stroke-linecap="round" stroke-linejoin="round"/>
<path d="M333.405 217.127C333.405 217.127 336.12 197.13 335.195 179.232C334.824 172.504 330.936 139.485 345.316 129.054" stroke="#51F7D7" stroke-width="1.11094" stroke-linecap="round" stroke-linejoin="round"/>
<path d="M317.975 215.831C317.975 215.831 322.234 190.649 321.987 175.837C321.74 161.024 320.505 129.671 327.973 124.61" stroke="#51F7D7" stroke-width="1.11094" stroke-linecap="round" stroke-linejoin="round"/>
</g>
<path d="M341.49 164.542C343.705 164.542 345.502 162.746 345.502 160.53C345.502 158.315 343.705 156.519 341.49 156.519C339.274 156.519 337.478 158.315 337.478 160.53C337.478 162.746 339.274 164.542 341.49 164.542Z" fill="#51F7D7"/>
<path d="M328.035 129.671C326.369 129.733 325.073 130.721 323.9 131.893C323.052 132.719 322.453 133.767 322.172 134.917C319.827 146.274 323.406 159.975 327.973 159.852C333.713 159.667 341.428 149.236 347.477 137.386C349.945 132.51 345.193 129.116 342.416 129.116C340.255 129.054 331.491 129.486 328.035 129.671Z" fill="#6DAFA7"/>
<path d="M354.389 105.663C354.237 109.16 353.241 112.569 351.488 115.599C348.588 120.537 345.07 123.129 343.897 125.351C342.724 127.573 343.033 121.771 343.897 118.994C344.761 116.217 349.884 101.404 354.389 105.663Z" fill="#22272E"/>
<path d="M326.739 124.425C326.739 124.425 326.06 130.412 325.628 132.695C325.196 134.979 324.209 140.966 331.862 141.336C338.712 141.706 342.416 136.398 343.773 133.806C344.197 133.033 344.389 132.155 344.329 131.276C344.144 128.56 343.773 121.894 343.959 116.463C344.205 109.551 326.739 119.549 326.739 124.425Z" fill="#F8D3BD"/>
<path d="M340.317 124.857C336.676 127.758 331.306 129.116 326.245 128.375C326.06 129.98 325.813 131.708 325.628 132.695C325.566 133.004 325.505 133.374 325.443 133.806C331.677 134.115 338.774 131.029 340.317 124.857Z" fill="#E26E85"/>
<path d="M319.456 102.206C319.456 102.206 317.79 104.613 318.037 106.465C318.284 108.317 321.802 114.55 323.591 114.365C325.381 114.18 327.233 106.527 325.134 103.996C323.036 101.466 320.135 101.034 319.456 102.206Z" fill="#22272E"/>
<path d="M320.876 105.724C320.951 108.822 320.745 111.921 320.259 114.982C319.456 119.92 318.901 127.326 326.245 129.362C333.59 131.399 342.23 128.622 344.946 118.5C347.662 108.378 349.637 98.1328 340.255 95.1703C330.874 92.2078 319.765 96.0344 320.876 105.724Z" fill="#F8D3BD"/>
<path d="M324.023 110.662C324.197 111.399 324.154 112.17 323.9 112.883C323.776 113.244 323.588 113.578 323.345 113.871C323.237 114.028 323.113 114.173 322.974 114.303C322.912 114.365 322.851 114.488 322.789 114.55C322.727 114.73 322.727 114.925 322.789 115.105C322.886 115.377 323.032 115.628 323.221 115.846C323.641 116.356 324.141 116.794 324.702 117.142C323.942 117.194 323.19 116.951 322.604 116.463C322.258 116.206 321.982 115.867 321.802 115.476C321.695 115.254 321.64 115.012 321.64 114.766C321.64 114.52 321.695 114.278 321.802 114.056C321.894 113.836 322.043 113.644 322.234 113.501C322.357 113.377 322.48 113.316 322.542 113.192C322.747 112.96 322.933 112.713 323.098 112.451C323.479 111.895 323.79 111.294 324.023 110.662Z" fill="#22272E"/>
<path d="M344.576 113.501C343.85 112.183 343.389 110.736 343.218 109.242C342.848 106.403 339.823 106.588 338.404 101.342C336.984 96.0959 333.528 102.576 328.035 104.922C322.542 107.267 318.222 103.502 316 99.3053C313.778 95.1084 317.543 91.4053 320.073 89.6772C322.604 87.949 325.258 90.7264 330.195 89.492C335.133 88.2576 343.095 86.7147 346.921 92.2694C350.748 97.824 354.698 99.1819 354.451 105.23C354.204 111.279 347.106 118.006 346.674 118.068C346.242 118.13 344.576 113.501 344.576 113.501Z" fill="#22272E"/>
<path d="M331.553 107.699C331.368 107.205 331.183 106.28 331.862 105.786C332.541 105.292 334.084 105.477 335.565 106.403C336.861 107.205 337.231 108.502 336.367 108.378C335.503 108.255 334.824 107.884 333.775 107.823C332.726 107.761 331.738 108.131 331.553 107.699Z" fill="#22272E"/>
<path d="M324.147 107.021C324.251 106.727 324.289 106.414 324.257 106.105C324.224 105.795 324.124 105.496 323.962 105.231C323.591 104.737 322.604 104.799 321.678 105.478C320.876 106.095 320.629 107.267 321.184 107.206C321.706 107.054 322.246 106.971 322.789 106.959C323.468 107.021 324.023 107.391 324.147 107.021Z" fill="#22272E"/>
<path d="M319.888 118.13C319.888 118.13 319.827 118.87 320.876 119.056C321.925 119.241 322.048 117.636 323.838 117.389C324.949 117.266 328.837 117.574 330.442 119.056C332.047 120.537 334.269 122.265 337.478 121.277C340.687 120.29 342.601 115.784 343.218 109.242C343.773 103.256 345.995 109.057 345.995 110.477C345.995 111.464 345.07 110.045 343.959 114.056C343.465 115.846 343.959 120.907 342.045 124.61C340.564 127.449 336.429 130.35 331.183 130.72C325.937 131.091 321.616 128.931 320.32 125.474C319.024 122.142 319.518 118.377 319.888 118.13Z" fill="#22272E"/>
<path d="M322.419 111.649C322.656 111.673 322.893 111.602 323.078 111.452C323.263 111.302 323.381 111.084 323.406 110.847L323.468 110.353C323.492 110.116 323.421 109.879 323.271 109.693C323.12 109.508 322.903 109.39 322.666 109.365C322.428 109.341 322.191 109.412 322.006 109.563C321.821 109.713 321.703 109.931 321.678 110.168L321.616 110.662C321.592 110.899 321.663 111.136 321.814 111.321C321.964 111.506 322.182 111.624 322.419 111.649Z" fill="#22272E"/>
<path d="M332.232 112.266C332.469 112.29 332.706 112.22 332.892 112.069C333.077 111.919 333.195 111.701 333.22 111.464L333.281 110.97C333.305 110.733 333.235 110.496 333.084 110.311C332.934 110.126 332.716 110.008 332.479 109.983C332.242 109.958 332.004 110.029 331.819 110.18C331.634 110.33 331.516 110.548 331.491 110.785L331.43 111.279C331.407 111.398 331.411 111.52 331.441 111.638C331.47 111.755 331.525 111.865 331.602 111.959C331.678 112.053 331.774 112.129 331.883 112.182C331.992 112.235 332.111 112.264 332.232 112.266Z" fill="#22272E"/>
<path d="M343.897 114.056C343.897 114.056 345.563 110.353 348.464 110.785C351.365 111.217 349.945 119.055 344.576 118.994" fill="#F8D3BD"/>
<path d="M348.279 113.562C348.133 113.399 347.967 113.254 347.785 113.13C347.6 113.069 347.662 113.192 347.538 113.254C347.538 113.316 347.415 113.809 347.353 114.241C347.295 114.717 347.148 115.177 346.921 115.599C346.814 115.862 346.644 116.095 346.427 116.278C346.318 116.371 346.185 116.431 346.044 116.453C345.902 116.475 345.757 116.457 345.625 116.401C345.72 116.352 345.802 116.282 345.866 116.197C345.93 116.111 345.974 116.012 345.995 115.908C346.057 115.723 346.057 115.537 346.119 115.352C346.154 114.896 346.216 114.443 346.304 113.994L346.489 113.254L346.674 112.884C346.736 112.822 346.736 112.76 346.859 112.698C346.983 112.637 347.045 112.575 347.106 112.513C347.279 112.429 347.469 112.387 347.662 112.39C347.854 112.44 348.026 112.548 348.155 112.698C348.233 112.827 348.284 112.969 348.305 113.118C348.326 113.266 348.317 113.417 348.279 113.562Z" fill="#22272E"/>
<path d="M326.739 121.586C327.792 122.023 328.942 122.172 330.072 122.018" stroke="#F8D3BD" stroke-width="1.11094" stroke-linecap="round" stroke-linejoin="round"/>
<path d="M323.743 109.864C324.038 106.777 322.626 104.116 320.59 103.922C318.554 103.727 316.665 106.073 316.37 109.161C316.076 112.249 317.487 114.909 319.523 115.104C321.559 115.298 323.449 112.952 323.743 109.864Z" stroke="#22272E" stroke-width="1.11094" stroke-linecap="round" stroke-linejoin="round"/>
<path d="M337.467 111.064C337.762 107.976 335.882 105.271 333.269 105.022C330.657 104.772 328.3 107.074 328.005 110.161C327.711 113.249 329.59 115.955 332.203 116.204C334.815 116.453 337.172 114.152 337.467 111.064Z" stroke="#22272E" stroke-width="1.11094" stroke-linecap="round" stroke-linejoin="round"/>
<path d="M323.591 110.785C323.591 110.785 324.641 108.81 327.973 111.156" stroke="#22272E" stroke-width="1.11094" stroke-linecap="round" stroke-linejoin="round"/>
<path d="M337.416 111.094L344.391 112.575" stroke="#22272E" stroke-width="1.11094" stroke-linecap="round" stroke-linejoin="round"/>
<path d="M364.141 179.231L367.412 185.835C367.412 185.835 363.955 190.526 360.252 199.413C356.549 208.301 353.834 219.287 351.303 222.435C351.303 222.435 353.772 228.36 359.82 230.952C359.82 230.952 371.609 213.671 376.978 206.141C382.348 198.611 387.47 188.983 387.1 184.169C386.545 177.071 381.175 166.579 380.681 163.74C380.187 160.901 364.264 171.023 364.141 179.231Z" fill="#F8D3BD"/>
<path d="M380.62 163.74C380.188 160.962 364.264 171.023 364.141 179.231L364.634 180.157C370.248 176.002 376.561 172.888 383.273 170.961C381.977 167.752 380.805 164.974 380.62 163.74Z" fill="#E26E85"/>
<path d="M354.389 216.015C355.253 217.497 358.216 221.447 365.128 223.051C365.18 223.061 365.229 223.084 365.269 223.119C365.31 223.153 365.341 223.197 365.36 223.246C365.378 223.296 365.384 223.349 365.376 223.402C365.367 223.454 365.346 223.504 365.313 223.545L362.166 227.804C362.104 227.927 361.919 227.927 361.795 227.927C354.08 225.582 352.044 221.694 351.735 220.953C351.705 220.919 351.688 220.875 351.688 220.83C351.688 220.784 351.705 220.74 351.735 220.706L353.834 216.077C353.957 215.769 354.266 215.769 354.389 216.015Z" fill="#22272E"/>
<path d="M357.904 225.17C358.754 223.78 358.364 221.991 357.031 221.176C355.698 220.361 353.928 220.827 353.077 222.218C352.226 223.608 352.617 225.397 353.95 226.212C355.283 227.027 357.053 226.561 357.904 225.17Z" fill="white"/>
<path d="M365.93 138.25C366.652 138.125 367.394 138.196 368.078 138.457C368.762 138.717 369.364 139.158 369.819 139.731C371.238 141.521 373.584 144.977 376.484 150.902C381.36 160.839 384.755 167.381 384.755 167.381C384.755 167.381 367.844 176.516 364.141 179.231C364.141 179.231 357.29 167.69 355.068 162.876C352.908 158.309 353.525 140.534 365.93 138.25Z" fill="#6DAFA7"/>
<path d="M362.042 175.652C368.553 170.969 375.522 166.957 382.841 163.678" stroke="#282828" stroke-width="1.11094" stroke-linecap="round" stroke-linejoin="round"/>
<path d="M348.896 218.361C350.03 221.791 351.965 224.902 354.541 227.435C357.117 229.968 360.26 231.85 363.709 232.926" stroke="#63737A" stroke-width="1.11094" stroke-linecap="round" stroke-linejoin="round"/>
<path d="M367.412 185.835C368.742 184.348 370.517 183.331 372.473 182.935" stroke="#E26E85" stroke-width="1.11094" stroke-linecap="round" stroke-linejoin="round"/>
<path d="M458.879 201.265L404.258 194.538C403.408 194.435 402.634 194.002 402.102 193.332C401.57 192.661 401.325 191.808 401.419 190.958L407.22 136.769C407.336 135.749 407.787 134.796 408.501 134.059C409.216 133.322 410.154 132.843 411.17 132.695L467.705 125.042C468.202 124.973 468.708 125.02 469.184 125.177C469.661 125.335 470.094 125.6 470.452 125.952C470.81 126.304 471.082 126.733 471.248 127.206C471.414 127.68 471.468 128.186 471.408 128.684L463.014 198.117C462.876 199.08 462.365 199.949 461.591 200.538C460.818 201.127 459.843 201.388 458.879 201.265Z" fill="#63737A"/>
<path d="M457.027 201.08L402.406 194.29C401.557 194.188 400.782 193.755 400.25 193.085C399.719 192.414 399.473 191.561 399.567 190.711L405.369 136.522C405.485 135.502 405.935 134.549 406.65 133.812C407.364 133.075 408.303 132.596 409.319 132.448L465.853 124.795C466.35 124.726 466.856 124.772 467.333 124.93C467.809 125.088 468.243 125.353 468.601 125.705C468.958 126.056 469.231 126.486 469.396 126.959C469.562 127.433 469.617 127.938 469.556 128.437L461.163 197.87C461.032 198.84 460.525 199.72 459.751 200.321C458.978 200.921 458 201.194 457.027 201.08Z" fill="#22272E"/>
<path d="M454.991 150.717L412.22 152.877C412.049 152.891 411.877 152.866 411.717 152.804C411.557 152.743 411.413 152.647 411.294 152.523C411.176 152.398 411.087 152.25 411.034 152.087C410.98 151.924 410.964 151.751 410.985 151.581L412.034 142.015C412.064 141.747 412.184 141.496 412.374 141.306C412.565 141.115 412.815 140.995 413.084 140.966L456.225 136.707C456.405 136.689 456.587 136.713 456.756 136.775C456.926 136.838 457.079 136.939 457.204 137.07C457.329 137.201 457.423 137.358 457.477 137.531C457.532 137.703 457.547 137.886 457.521 138.065L456.102 149.791C456.102 150.223 455.608 150.655 454.991 150.717Z" fill="#6DAFA7"/>
<path d="M423.144 144.298L451.473 142.015" stroke="#22272E" stroke-width="1.11094" stroke-linecap="round" stroke-linejoin="round"/>
<path d="M422.773 147.94L438.018 146.891" stroke="#22272E" stroke-width="1.11094" stroke-linecap="round" stroke-linejoin="round"/>
<path d="M418.226 147.305C418.776 146.285 418.541 145.091 417.701 144.638C416.861 144.185 415.734 144.644 415.184 145.664C414.634 146.684 414.869 147.879 415.709 148.332C416.549 148.785 417.676 148.325 418.226 147.305Z" fill="#22272E"/>
<path d="M452.584 170.282L410.306 169.541C410.144 169.533 409.985 169.494 409.838 169.424C409.692 169.355 409.56 169.257 409.451 169.137C409.342 169.016 409.258 168.875 409.204 168.723C409.149 168.57 409.125 168.407 409.134 168.245L410.183 158.741C410.208 158.449 410.343 158.178 410.561 157.983C410.779 157.788 411.063 157.684 411.355 157.691L453.941 156.334C454.114 156.333 454.286 156.368 454.444 156.438C454.603 156.507 454.745 156.61 454.861 156.738C454.977 156.866 455.066 157.017 455.12 157.181C455.174 157.345 455.193 157.519 455.176 157.691L453.818 169.294C453.754 169.574 453.597 169.824 453.373 170.003C453.149 170.183 452.871 170.281 452.584 170.282Z" fill="#94E797"/>
<path d="M421.23 161.703L449.251 161.333" stroke="#22272E" stroke-width="1.11094" stroke-linecap="round" stroke-linejoin="round"/>
<path d="M420.798 165.283H435.92" stroke="#22272E" stroke-width="1.11094" stroke-linecap="round" stroke-linejoin="round"/>
<path d="M416.405 164.363C416.909 163.319 416.646 162.149 415.817 161.748C414.989 161.348 413.908 161.869 413.404 162.913C412.9 163.956 413.163 165.127 413.991 165.527C414.82 165.928 415.901 165.406 416.405 164.363Z" fill="#22272E"/>
<path d="M450.238 189.662L408.455 186.082C408.138 186.051 407.846 185.898 407.639 185.657C407.432 185.415 407.326 185.103 407.344 184.786L408.393 175.343C408.421 175.042 408.566 174.763 408.797 174.567C409.027 174.371 409.325 174.273 409.627 174.294L451.72 175.837C451.887 175.844 452.052 175.886 452.203 175.959C452.354 176.033 452.489 176.136 452.598 176.263C452.708 176.39 452.791 176.538 452.841 176.698C452.892 176.859 452.909 177.027 452.892 177.195L451.534 188.674C451.466 188.963 451.299 189.22 451.063 189.4C450.827 189.58 450.535 189.673 450.238 189.662Z" fill="#2E3E4C"/>
<path d="M419.317 178.984L446.967 180.466" stroke="#22272E" stroke-width="1.11094" stroke-linecap="round" stroke-linejoin="round"/>
<path d="M418.885 182.502L433.821 183.552" stroke="#22272E" stroke-width="1.11094" stroke-linecap="round" stroke-linejoin="round"/>
<path d="M414.627 180.86C415.083 179.794 414.768 178.637 413.922 178.274C413.076 177.912 412.02 178.482 411.564 179.547C411.107 180.612 411.423 181.77 412.269 182.132C413.115 182.495 414.171 181.925 414.627 180.86Z" fill="#22272E"/>
</svg>
